<svg width="24" height="24" viewBox="0 0 24 24" fill="none" xmlns="http://www.w3.org/2000/svg">
<path d="M21.1667 7.83333C21.6275 7.83333 22 8.20583 22 8.66667V12C22 13.3783 20.8783 14.5 19.5 14.5H17.9658C16.6767 17.4392 13.7425 19.5 10.3333 19.5C5.73833 19.5 2 15.7617 2 11.1667V8.66667C2 8.20583 2.3725 7.83333 2.83333 7.83333H21.1667ZM20.3333 12V9.5H18.6667V11.1667C18.6667 11.7375 18.6083 12.295 18.4983 12.8333H19.5C19.96 12.8333 20.3333 12.46 20.3333 12ZM17.8333 20.3333C18.2942 20.3333 18.6667 20.7058 18.6667 21.1667C18.6667 21.6275 18.2942 22 17.8333 22H2.83333C2.3725 22 2 21.6275 2 21.1667C2 20.7058 2.3725 20.3333 2.83333 20.3333H17.8333ZM5.33333 2.83333H7V6.16667H5.33333V2.83333ZM9.5 2H11.1667V5.33333H9.5V2ZM13.6667 2.83333H15.3333V6.16667H13.6667V2.83333Z" fill="#1A051D"/>
</svg>
