<svg width="64" height="64" viewBox="0 0 64 64" fill="none" xmlns="http://www.w3.org/2000/svg">
<path d="M59.3025 33.1102C60.8248 34.5512 61.7745 36.591 61.7745 38.8526C61.7745 42.4702 59.3447 45.5203 56.0281 46.4599C55.5465 51.9559 50.9325 56.2666 45.3114 56.2666H18.6885C13.0674 56.2666 8.45336 51.9559 7.97176 46.4599C4.65514 45.5203 2.22534 42.4702 2.22534 38.8526C2.22534 36.591 3.17503 34.5512 4.69737 33.1102C3.24278 32.4796 2.22534 31.0309 2.22534 29.3444C2.22534 27.0786 4.06194 25.242 6.3278 25.242H7.96818C8.61378 14.6311 17.4233 6.22559 28.1967 6.22559H35.8032C46.5765 6.22559 55.3861 14.6311 56.0317 25.242H57.6721C59.9379 25.242 61.7745 27.0786 61.7745 29.3444C61.7745 31.0309 60.7571 32.4796 59.3025 33.1102ZM53.8688 33.4469H49.6325L42.392 40.6873C41.9039 41.1755 41.1124 41.1755 40.6242 40.6873L33.3838 33.4469H10.1311C7.14557 33.4469 4.72534 35.8671 4.72534 38.8526C4.72534 41.8381 7.14557 44.2584 10.1311 44.2584H53.8688C56.8543 44.2584 59.2745 41.8381 59.2745 38.8526C59.2745 35.8671 56.8543 33.4469 53.8688 33.4469ZM10.5242 46.7584C11.1267 50.7262 14.5524 53.7666 18.6885 53.7666H45.3114C49.4475 53.7666 52.8732 50.7262 53.4756 46.7584H10.5242ZM53.5263 25.242C52.8849 16.0129 45.1954 8.72559 35.8032 8.72559H28.1967C18.8045 8.72559 11.115 16.0129 10.4735 25.242H53.5263ZM23.3756 19.9032C23.8638 20.3913 23.8638 21.1828 23.3756 21.6709C22.8875 22.1591 22.096 22.1591 21.6079 21.6709L19.7062 19.7693C19.2181 19.2812 19.2181 18.4897 19.7062 18.0015C20.1944 17.5134 20.9858 17.5134 21.474 18.0015L23.3756 19.9032ZM30.9822 17.8677C30.494 18.3558 29.7026 18.3558 29.2144 17.8677C28.7263 17.3795 28.7263 16.5881 29.2144 16.0999L31.116 14.1983C31.6042 13.7101 32.3957 13.7101 32.8838 14.1983C33.372 14.6864 33.372 15.4779 32.8838 15.966L30.9822 17.8677ZM44.6598 18.8854C44.6598 19.5758 44.1001 20.1354 43.4098 20.1354C42.7194 20.1354 42.1598 19.5758 42.1598 18.8854V16.9838C42.1598 16.2934 42.7194 15.7338 43.4098 15.7338C44.1001 15.7338 44.6598 16.2934 44.6598 16.9838V18.8854ZM48.2308 31.313C48.4652 31.0786 48.7832 30.9469 49.1147 30.9469H57.6721C58.5572 30.9469 59.2745 30.2296 59.2745 29.3444C59.2745 28.4593 58.5572 27.742 57.6721 27.742H6.3278C5.44265 27.742 4.72534 28.4593 4.72534 29.3444C4.72534 30.2296 5.44265 30.9469 6.3278 30.9469H33.9016C34.2331 30.9469 34.551 31.0786 34.7855 31.313L41.5081 38.0357L48.2308 31.313Z" fill="#1A051D"/>
</svg>
